<?xml version="1.0" standalone="no"?>
<!DOCTYPE svg PUBLIC "-//W3C//DTD SVG 20010904//EN"
 "http://www.w3.org/TR/2001/REC-SVG-20010904/DTD/svg10.dtd">
<svg version="1.0" xmlns="http://www.w3.org/2000/svg"
 width="200.000000pt" height="200.000000pt" viewBox="0 0 200.000000 200.000000"
 preserveAspectRatio="xMidYMid meet">

<g transform="translate(0.000000,200.000000) scale(0.100000,-0.100000)"
fill="#000000" stroke="none">
<path d="M892 1355 c-55 -24 -98 -63 -125 -114 -33 -61 -34 -75 -2 -89 37 -17
79 -16 72 2 -9 23 16 48 44 44 20 -2 24 -9 24 -36 0 -28 3 -32 20 -28 11 3 30
6 43 6 21 0 23 4 20 42 -3 42 -2 43 32 48 46 7 56 40 12 40 -38 0 -46 21 -27
66 l14 34 -47 0 c-26 -1 -62 -7 -80 -15z"/>
<path d="M1320 1333 c0 -35 -27 -63 -59 -63 -38 0 -22 -34 18 -38 l34 -3 -32
-20 c-17 -10 -37 -30 -43 -44 -6 -14 -15 -25 -19 -25 -5 0 -6 -13 -3 -29 5
-23 2 -30 -15 -36 -11 -3 -33 0 -48 7 -21 10 -28 21 -28 43 -1 22 -5 30 -18
29 -9 0 -33 -1 -52 -2 -33 -2 -35 -4 -29 -29 6 -23 5 -25 -12 -18 -45 19 -71
17 -99 -8 -53 -45 -32 -127 35 -142 16 -4 38 -1 49 5 14 7 21 7 21 1 0 -15
-45 -24 -86 -18 -19 3 -72 29 -117 56 -86 53 -111 61 -120 37 -7 -18 11 -33
101 -86 50 -29 70 -46 63 -53 -7 -7 4 -26 35 -59 44 -47 45 -49 38 -98 -6 -46
-5 -50 15 -50 15 0 21 6 21 23 0 13 3 26 6 30 4 3 37 -21 74 -53 37 -33 76
-60 88 -60 38 0 52 11 52 44 1 28 2 29 14 13 12 -16 19 -13 87 39 41 31 87 68
102 82 l28 26 23 -29 c31 -38 43 -26 26 25 -12 36 -12 43 3 57 16 16 14 18
-16 31 -38 17 -20 28 23 14 27 -10 31 -8 50 22 46 76 64 166 33 166 -17 1 -17
1 0 14 24 18 21 49 -7 95 -45 70 -115 117 -191 128 -45 6 -45 6 -45 -24z m132
-135 c18 -15 31 -80 14 -75 -6 2 -12 18 -14 35 -4 38 -23 41 -45 10 l-16 -23
0 22 c-1 12 7 27 17 32 22 13 25 13 44 -1z m-175 -271 c-3 -8 -20 -17 -39 -21
-33 -6 -33 -6 -30 -56 4 -53 -9 -83 -33 -74 -7 3 -16 13 -19 21 -5 13 -4 14 9
3 9 -7 17 -11 19 -9 5 5 9 38 7 72 -1 26 -2 27 -61 27 -33 0 -60 4 -60 8 0 5
13 7 29 4 16 -2 61 1 100 8 53 9 71 16 71 28 0 8 3 13 6 9 4 -3 4 -13 1 -20z
m98 -77 c-3 -5 -18 -10 -33 -10 -21 0 -24 2 -12 10 20 13 53 13 45 0z m-217
-121 c24 -9 25 -11 9 -20 -9 -6 -22 -7 -28 -4 -15 10 -28 48 -21 60 4 6 8 2
10 -8 2 -10 16 -23 30 -28z"/>
<path d="M1847 932 c-23 -25 -24 -50 -1 -32 20 17 37 50 26 50 -5 0 -16 -8
-25 -18z"/>
<path d="M157 847 c-9 -70 -26 -117 -43 -117 -8 0 -14 -4 -14 -10 0 -5 5 -10
10 -10 7 0 7 -6 0 -19 -7 -13 -7 -22 0 -26 6 -3 14 5 19 18 16 41 59 49 91 17
12 -12 25 -18 30 -15 5 3 -2 16 -14 28 -13 13 -26 42 -30 67 -10 68 -26 120
-35 120 -5 0 -11 -24 -14 -53z m35 -73 c3 -35 0 -39 -21 -42 -18 -3 -22 0 -18
11 3 8 9 36 13 63 5 38 9 44 15 28 4 -12 9 -38 11 -60z"/>
<path d="M1807 824 c-21 -41 -28 -47 -61 -50 l-37 -3 3 37 c2 20 -1 39 -7 42
-6 3 -10 -15 -10 -45 0 -44 3 -50 20 -49 11 1 28 5 37 8 13 6 15 3 11 -16 -6
-22 -5 -22 13 -6 25 22 70 33 78 19 4 -6 16 -11 27 -11 20 0 20 0 0 21 -11 12
-23 39 -26 60 -4 22 -11 39 -16 39 -5 0 -19 -21 -32 -46z m25 -42 c-21 -6 -25
4 -11 30 l13 23 6 -25 c4 -17 2 -26 -8 -28z"/>
<path d="M605 811 c-13 -27 -29 -52 -35 -56 -5 -3 -10 -13 -10 -22 0 -15 2
-15 18 0 23 21 68 31 76 18 4 -6 16 -11 27 -11 20 0 20 0 0 21 -11 12 -23 39
-26 60 -4 22 -11 39 -16 39 -5 0 -20 -22 -34 -49z m27 -39 c-21 -6 -25 4 -11
30 l13 23 6 -25 c4 -17 2 -26 -8 -28z"/>
<path d="M263 843 c-32 -6 -29 -24 3 -21 22 2 29 -3 37 -25 12 -37 -2 -53 -33
-37 -12 7 -19 18 -16 26 3 8 -1 14 -9 14 -21 0 -19 -24 4 -44 11 -10 31 -16
48 -14 29 3 31 12 21 73 -2 11 2 20 9 20 6 0 15 3 19 8 8 7 -44 8 -83 0z"/>
<path d="M457 843 c-11 -10 -8 -25 3 -18 6 4 10 -9 10 -33 0 -54 19 -68 54
-41 63 50 55 99 -18 99 -23 0 -46 -3 -49 -7z m77 -9 c24 -9 19 -40 -10 -63
-40 -32 -55 -12 -34 43 10 27 17 30 44 20z"/>
<path d="M356 814 c-10 -27 -7 -74 6 -74 6 0 20 8 31 18 15 12 21 14 24 5 3
-7 11 -13 18 -13 10 0 11 9 5 36 -11 47 -17 52 -29 22 -11 -30 -37 -52 -45
-39 -3 5 -2 21 4 35 5 14 6 26 1 26 -5 0 -12 -7 -15 -16z"/>
</g>
</svg>
